<svg width="120" height="17" viewBox="0 0 120 17" fill="none" xmlns="http://www.w3.org/2000/svg">
<path d="M25.7834 0.338837C25.7574 0.383335 24.1439 4.12751 22.2117 8.65359L18.6855 16.8857L20.3185 16.9048C21.2228 16.9111 21.984 16.9111 22.023 16.8921C22.0621 16.8793 22.4329 16.0784 22.8428 15.1121L23.5844 13.3576L28.0409 13.3767L32.4974 13.3894L33.2261 15.1376L33.9548 16.8857L35.6528 16.9048L37.3573 16.9175L37.3183 16.7776C37.2988 16.695 35.7439 12.9572 33.8702 8.46288L30.4611 0.294338L28.1515 0.275269C26.3429 0.262554 25.829 0.281626 25.7834 0.338837ZM29.7325 6.7656L31.3329 10.5924L28.08 10.6115C26.2974 10.6179 24.8206 10.6115 24.8075 10.5988C24.7685 10.567 28.067 2.87522 28.106 2.91336C28.1255 2.92607 28.8542 4.66149 29.7325 6.7656Z" fill="#332E2E"/>
<path d="M38.0073 0.529543C38.1244 0.675751 39.7964 2.74172 41.7157 5.11918L45.2093 9.44819L45.2158 13.1797V16.9175H46.8423H48.4687V13.1797L48.4752 9.44819L52.086 4.96662C54.0703 2.50016 55.7227 0.434191 55.7618 0.370623C55.8203 0.268913 55.7097 0.262556 53.8491 0.262556H51.8778L49.3795 3.37105C48.0003 5.0874 46.8618 6.47319 46.8423 6.45412C46.8227 6.43505 45.6972 5.0429 44.331 3.35834L41.8588 0.29434L39.8225 0.27527L37.7861 0.262556L38.0073 0.529543Z" fill="#332E2E"/>
<path d="M65.7088 0.331621C63.7635 0.547754 62.0525 1.35507 60.6668 2.70908C59.1574 4.17751 58.3767 5.79215 58.1555 7.89626C57.9994 9.36469 58.3247 11.0238 59.0533 12.4223C59.6063 13.4903 60.8229 14.8443 61.8053 15.4863C63.9782 16.9039 66.5741 17.3107 68.9942 16.6306C70.7638 16.1284 72.2537 15.1494 73.3532 13.77C73.7175 13.3123 74.1013 12.7338 74.1013 12.6448C74.1013 12.613 72.5074 11.704 72.4488 11.704C72.4358 11.704 72.2992 11.8947 72.1431 12.1299C71.9869 12.3715 71.6291 12.7974 71.3494 13.0834C70.4776 13.9734 69.5212 14.5264 68.2656 14.8634C67.6996 15.0223 67.5174 15.0414 66.6196 15.035C65.7934 15.035 65.5071 15.0096 65.0322 14.8951C64.4011 14.7426 63.4382 14.323 62.9308 13.9861C61.6036 13.1025 60.6147 11.7358 60.2048 10.2102C60.0552 9.65711 60.0292 9.44733 60.0292 8.62094C60.0292 7.79455 60.0552 7.58478 60.2048 7.03173C60.7058 5.18189 61.9679 3.67532 63.7245 2.82986C64.7589 2.33403 65.364 2.20689 66.6196 2.20689C67.5174 2.20053 67.6996 2.2196 68.2591 2.37217C69.0593 2.5883 69.6188 2.84257 70.2889 3.27484C70.8939 3.66896 71.7332 4.49535 72.117 5.06747L72.3773 5.46159L73.236 5.01026L74.0948 4.55256L73.9257 4.26651C73.8346 4.10758 73.5743 3.7516 73.3532 3.4719C71.5575 1.21522 68.6104 0.00742149 65.7088 0.331621Z" fill="#332E2E"/>
<path d="M85.4217 0.331617C83.4764 0.54775 81.7654 1.35507 80.3797 2.70908C78.8703 4.17751 78.0896 5.79215 77.8684 7.89626C77.7123 9.36469 78.0375 11.0238 78.7662 12.4223C79.3192 13.4903 80.5358 14.8443 81.5182 15.4863C83.6911 16.9039 86.287 17.3107 88.7071 16.6306C90.8541 16.0203 92.6106 14.6854 93.7426 12.8101C95.0698 10.6043 95.265 7.78184 94.2436 5.41709C92.7668 1.99711 89.156 -0.0815773 85.4217 0.331617ZM88.0045 2.38488C89.2146 2.70908 90.2035 3.28755 91.0492 4.15208C91.882 4.99754 92.4155 5.90657 92.7212 6.99995C92.8513 7.464 92.9766 7.72304 92.9766 8.60505C92.9034 9.77312 92.8513 9.77789 92.7212 10.2419C92.4155 11.3353 91.882 12.2443 91.0622 13.0834C90.1905 13.9734 89.2341 14.5264 87.9785 14.8634C87.4125 15.0223 87.2303 15.0414 86.3325 15.035C85.5063 15.035 85.22 15.0096 84.7451 14.8951C84.114 14.7426 83.1511 14.323 82.6437 13.9861C81.3165 13.1025 80.3276 11.7358 79.9177 10.2102C79.7681 9.65711 79.7047 9.43939 79.6803 8.60505C79.7047 7.79455 79.7681 7.58478 79.9177 7.03173C80.5748 4.58435 82.6046 2.73451 85.1419 2.2641C85.9161 2.12425 87.2368 2.1751 88.0045 2.38488Z" fill="#332E2E"/>
<path d="M100.646 8.66618V17L101.543 16.9809L102.435 16.9619L102.467 9.92484L102.5 2.89417L105.896 9.92484L109.285 16.9619L110.326 16.9809L111.361 16.9936L112.271 15.1057C112.772 14.0631 114.308 10.8656 115.681 8.00507L118.179 2.79882L118.198 9.89941L118.211 17L119.109 16.9809L120 16.9619V8.66618V0.370502L118.693 0.351433L117.385 0.338718L113.878 7.64909C111.946 11.6666 110.352 14.9595 110.333 14.9595C110.313 14.9595 108.713 11.6793 106.781 7.6618L103.261 0.370502L101.953 0.351433L100.646 0.338718V8.66618Z" fill="#332E2E"/>
<path d="M0 8.6218V16.9175H4.31337C9.09517 16.9175 9.29685 16.9048 10.5199 16.5043C14.0201 15.3601 16.3297 12.2261 16.3297 8.6218C16.3297 6.3397 15.4969 4.39451 13.8314 2.76715C12.8035 1.75642 11.8862 1.19701 10.5395 0.752035C9.30986 0.33884 9.12119 0.326126 4.31337 0.326126H0V8.6218ZM9.20576 3.42827C11.125 3.94317 12.5433 5.27175 13.1418 7.09616C13.363 7.77634 13.3955 9.00957 13.2134 9.76603C12.7905 11.5015 11.4893 12.9381 9.76527 13.5484C8.82192 13.8853 8.3535 13.9298 5.61454 13.9298H3.1228V8.58366V3.23756L5.9073 3.26299C8.52265 3.28841 8.71783 3.30113 9.20576 3.42827Z" fill="#332E2E"/>
</svg>
