<svg width="445" height="235" viewBox="0 0 445 235" fill="none" xmlns="http://www.w3.org/2000/svg">
<rect width="445" height="235" fill="white"/>
<path d="M122.199 93.407C122.123 93.5398 117.418 104.716 111.782 118.227L101.497 142.8L106.26 142.857C108.898 142.876 111.118 142.876 111.232 142.819C111.345 142.781 112.427 140.39 113.623 137.506L115.786 132.268L128.784 132.325L141.782 132.363L143.907 137.581L146.032 142.8L150.985 142.857L155.956 142.895L155.843 142.477C155.786 142.23 151.251 131.073 145.786 117.657L135.843 93.2741L129.106 93.2172C123.831 93.1792 122.332 93.2362 122.199 93.407ZM133.717 112.591L138.385 124.014L128.898 124.071C123.698 124.09 119.391 124.071 119.353 124.033C119.239 123.938 128.86 100.978 128.974 101.092C129.03 101.13 131.156 106.31 133.717 112.591Z" fill="#FFCB02"/>
<path d="M157.854 93.9762C158.196 94.4126 163.073 100.58 168.67 107.676L178.86 120.599L178.879 131.737V142.895H183.623H188.367V131.737L188.386 120.599L198.917 107.221C204.704 99.8586 209.524 93.6916 209.638 93.5018C209.809 93.1982 209.486 93.1792 204.059 93.1792H198.31L191.023 102.458C187 107.582 183.68 111.718 183.623 111.661C183.566 111.604 180.283 107.449 176.298 102.42L169.088 93.2741L163.148 93.2172L157.209 93.1792L157.854 93.9762Z" fill="#FFCB02"/>
<path d="M238.65 93.3874C232.977 94.0326 227.986 96.4424 223.944 100.484C219.542 104.867 217.265 109.687 216.62 115.968C216.164 120.351 217.113 125.304 219.238 129.478C220.851 132.666 224.4 136.708 227.265 138.625C233.603 142.856 241.174 144.07 248.233 142.04C253.394 140.541 257.739 137.619 260.946 133.501C262.009 132.135 263.128 130.408 263.128 130.143C263.128 130.048 258.479 127.334 258.309 127.334C258.271 127.334 257.872 127.903 257.417 128.606C256.961 129.327 255.918 130.598 255.102 131.452C252.559 134.108 249.77 135.759 246.107 136.765C244.457 137.239 243.925 137.296 241.307 137.277C238.897 137.277 238.062 137.201 236.677 136.86C234.836 136.404 232.028 135.152 230.548 134.146C226.677 131.509 223.792 127.429 222.597 122.875C222.161 121.224 222.085 120.598 222.085 118.131C222.085 115.664 222.161 115.038 222.597 113.387C224.058 107.866 227.739 103.368 232.863 100.845C235.88 99.3646 237.644 98.9851 241.307 98.9851C243.925 98.9661 244.457 99.0231 246.088 99.4785C248.422 100.124 250.054 100.883 252.009 102.173C253.773 103.349 256.221 105.816 257.341 107.524L258.1 108.7L260.605 107.353L263.109 105.987L262.616 105.133C262.35 104.659 261.591 103.596 260.946 102.761C255.709 96.025 247.113 92.4197 238.65 93.3874Z" fill="#332E2E"/>
<path d="M296.146 93.3874C290.472 94.0325 285.482 96.4424 281.44 100.484C277.038 104.867 274.761 109.687 274.116 115.968C273.66 120.351 274.609 125.304 276.734 129.478C278.347 132.666 281.896 136.708 284.761 138.625C291.099 142.856 298.67 144.07 305.729 142.04C311.99 140.218 317.114 136.234 320.415 130.636C324.286 124.051 324.856 115.626 321.876 108.568C317.569 98.3589 307.038 92.154 296.146 93.3874ZM303.679 99.5164C307.209 100.484 310.093 102.211 312.56 104.792C314.988 107.315 316.544 110.029 317.436 113.292C317.816 114.678 318.181 115.451 318.181 118.084C317.968 121.57 317.816 121.585 317.436 122.97C316.544 126.234 314.988 128.947 312.598 131.452C310.055 134.108 307.266 135.759 303.603 136.765C301.952 137.239 301.421 137.296 298.803 137.277C296.393 137.277 295.558 137.201 294.173 136.86C292.332 136.404 289.524 135.152 288.044 134.146C284.173 131.509 281.288 127.429 280.093 122.875C279.656 121.224 279.471 120.574 279.4 118.084C279.471 115.664 279.656 115.038 280.093 113.387C282.009 106.082 287.93 100.56 295.33 99.1559C297.588 98.7384 301.44 98.8902 303.679 99.5164Z" fill="#332E2E"/>
<path d="M340.549 118.035V142.912L343.167 142.855L345.767 142.798L345.862 121.793L345.957 100.806L355.862 121.793L365.748 142.798L368.784 142.855L371.801 142.893L374.457 137.257C375.919 134.146 380.397 124.601 384.401 116.062L391.687 100.521L391.744 121.717L391.782 142.912L394.4 142.855L397 142.798V118.035V93.2727L393.186 93.2158L389.372 93.1779L379.144 114.999C373.509 126.992 368.86 136.821 368.803 136.821C368.746 136.821 364.078 127.03 358.442 115.037L348.177 93.2727L344.363 93.2158L340.549 93.1779V118.035Z" fill="#332E2E"/>
<path d="M47 118.132V142.895H59.5806C73.5275 142.895 74.1157 142.857 77.6831 141.661C87.8918 138.246 94.628 128.891 94.628 118.132C94.628 111.32 92.1992 105.513 87.3415 100.656C84.3434 97.6384 81.6679 95.9686 77.74 94.6404C74.1537 93.407 73.6034 93.369 59.5806 93.369H47V118.132ZM73.8501 102.629C79.4478 104.166 83.5844 108.132 85.3301 113.578C85.9753 115.608 86.0701 119.289 85.5388 121.547C84.3054 126.728 80.5104 131.016 75.4819 132.838C72.7305 133.843 71.3643 133.976 63.3757 133.976H56.1081V118.018V102.06L64.2296 102.136C71.8576 102.211 72.4269 102.249 73.8501 102.629Z" fill="#FFCB02"/>
</svg>
